#!OML:ASF \\sashay\E\basketball\basketball\Project 1\Capture day 1\Session 1\Subject.ASF
:FULLY-SPECIFIED
:DEGREES
180
root -21.4434 12.2743 -5.21864 173.993 -36.8624 -192.394
lowerback 41.2147 5.0067 -3.56701
upperback 16.4173 -0.0120011 -1.89602
thorax -1.48815 -2.01939 -0.129548
lowerneck -1.91443 3.59671 -15.1412
upperneck -18.4202 5.47706 12.4031
head -5.96124 2.52469 6.34587
rclavicle -1.70955e-014 -4.25399e-014
rhumerus -23.669 -26.719 -70.0847
rradius 37.4376
rwrist -26.8657
rhand -32.6122 33.8932
rfingers 7.12502
rthumb -5.83982 3.99364
lclavicle -1.70955e-014 -4.25399e-014
lhumerus -15.8226 18.7745 62.1932
lradius 64.7916
lwrist 45.7178
lhand -18.1952 21.7605
lfingers 7.12502
lthumb 8.08194 51.586
rfemur -53.6609 -9.80484 18.0694
rtibia 82.9424
rfoot -12.827 -9.74333
rtoes -36.2374
lfemur -34.5744 18.9835 -4.76361
ltibia 35.608
lfoot 1.68345 0.487481
ltoes -54.7381
181
root -21.79 12.1567 -5.31963 174.065 -36.8891 -191.908
lowerback 41.0348 5.1747 -3.73725
upperback 16.2644 0.232824 -1.64751
thorax -1.61031 -1.8892 0.137646
lowerneck -2.37433 3.80669 -13.2909
upperneck -17.9563 5.65518 11.0451
head -5.68024 2.58699 5.5534
rclavicle 4.37326e-015 1.63003e-014
rhumerus -22.2753 -25.7249 -70.3397
rradius 37.7537
rwrist -27.3787
rhand -32.832 33.9212
rfingers 7.12502
rthumb -6.05205 4.02764
lclavicle 4.37326e-015 1.63003e-014
lhumerus -15.4258 18.6914 62.3669
lradius 64.9348
lwrist 45.1447
lhand -18.2024 21.4555
lfingers 7.12502
lthumb 8.07501 51.2812
rfemur -54.9431 -10.8761 17.8911
rtibia 85.4176
rfoot -14.0642 -10.4361
rtoes -34.9846
lfemur -35.7293 18.1641 -4.57239
ltibia 34.994
lfoot 2.367 1.29671
ltoes -55.2107
182
root -22.122 12.03 -5.41009 174.457 -36.9904 -191.66
lowerback 40.6104 5.25976 -3.92409
upperback 16.2051 0.363814 -1.66142
thorax -1.55691 -1.80564 0.173697
lowerneck -3.06502 3.58695 -13.1634
upperneck -17.4955 5.50469 11.846
head -5.40459 2.46989 5.81104
rclavicle 6.57977e-014 -7.4743e-014
rhumerus -20.7515 -25.0503 -71.0136
rradius 38.263
rwrist -27.7271
rhand -33.0896 33.9839
rfingers 7.12502
rthumb -6.30068 4.09761
lclavicle 6.57977e-014 -7.4743e-014
lhumerus -14.6301 18.6907 62.263
lradius 64.7547
lwrist 44.7176
lhand -17.5806 20.3173
lfingers 7.12502
lthumb 8.67512 50.1191
rfemur -56.4145 -11.79 17.4522
rtibia 88.0091
rfoot -15.1268 -11.2756
rtoes -34.1882
lfemur -37.4592 18.315 -5.21876
ltibia 35.0582
lfoot 2.64824 0.836891
ltoes -56.0414
183
root -22.4535 11.9202 -5.48971 174.8 -36.7302 -191.663
lowerback 40.2426 5.38629 -3.83628
upperback 16.2699 0.562306 -2.05318
thorax -1.37773 -1.6795 -0.354216
lowerneck -3.40729 3.34445 -12.8441
upperneck -17.5082 5.29293 12.687
head -5.32051 2.28833 6.05663
rclavicle -4.19436e-014 4.09496e-014
rhumerus -19.3738 -24.7819 -71.9095
rradius 39.0023
rwrist -28.1405
rhand -33.0326 34.3371
rfingers 7.12502
rthumb -6.24569 4.44916
lclavicle -4.19436e-014 4.09496e-014
lhumerus -13.5008 18.1428 61.8578
lradius 64.4006
lwrist 44.55
lhand -17.1498 19.6993
lfingers 7.12502
lthumb 9.0908 49.4833
rfemur -57.6438 -12.5707 16.7465
rtibia 90.453
rfoot -16.3208 -11.5024
rtoes -32.4256
lfemur -38.8533 19.4527 -6.50224
ltibia 35.4435
lfoot 2.77175 -0.460907
ltoes -56.5933
184
root -22.7747 11.8218 -5.54997 174.922 -36.2502 -191.74
lowerback 40.3628 5.66138 -3.89474
upperback 16.2188 0.83779 -2.29829
thorax -1.46893 -1.53765 -0.678006
lowerneck -3.69592 3.23083 -12.3052
upperneck -17.4596 5.16891 12.8664
head -5.22469 2.18057 6.03336
rclavicle -1.65985e-014 -2.10712e-014
rhumerus -18.2777 -24.1132 -72.3932
rradius 40.1959
rwrist -29.0215
rhand -32.3577 34.7568
rfingers 7.12502
rthumb -5.59408 4.85067
lclavicle -1.65985e-014 -2.10712e-014
lhumerus -12.603 17.3929 61.5899
lradius 64.0278
lwrist 44.726
lhand -17.2 19.667
lfingers 7.12502
lthumb 9.04237 49.4532
rfemur -58.5427 -13.1766 15.8976
rtibia 92.7245
rfoot -17.4105 -11.3575
rtoes -31.2971
lfemur -39.5636 19.6874 -7.4699
ltibia 36.1126
lfoot 3.10881 -0.724638
ltoes -56.5181
185
root -23.1004 11.7409 -5.60043 174.853 -35.5628 -191.997
lowerback 40.7846 6.08411 -4.33567
upperback 16.0473 1.12374 -2.37913
thorax -1.78463 -1.4232 -0.639724
lowerneck -3.67372 3.32057 -11.8456
upperneck -17.3439 5.27359 12.763
head -5.19192 2.20906 5.91119
rclavicle 1.60022e-014 -4.37326e-015
rhumerus -17.4915 -22.999 -72.4642
rradius 41.7872
rwrist -29.85
rhand -32.1383 34.3884
rfingers 7.12502
rthumb -5.38225 4.4768
lclavicle 1.60022e-014 -4.37326e-015
lhumerus -12.3066 16.9982 61.4908
lradius 63.7944
lwrist 44.9201
lhand -17.1135 19.8374
lfingers 7.12502
lthumb 9.12585 49.6199
rfemur -58.9469 -13.7896 14.7644
rtibia 94.6659
rfoot -18.4141 -11.0577
rtoes -30.2033
lfemur -39.661 20.164 -8.49874
ltibia 36.7417
lfoot 3.72465 -2.16115
ltoes -55.1794
186
root -23.4102 11.6575 -5.62182 174.259 -34.7773 -191.078
lowerback 41.3253 6.22874 -4.0393
upperback 15.8347 1.35783 -2.28613
thorax -2.17319 -1.29768 -0.774661
lowerneck -4.1082 3.49243 -11.3066
upperneck -17.1498 5.49933 12.6348
head -5.07069 2.29828 5.76846
rclavicle -7.26558e-014 9.48203e-014
rhumerus -16.4351 -21.8531 -72.5791
rradius 43.3781
rwrist -30.3799
rhand -32.0247 34.176
rfingers 7.12502
rthumb -5.27257 4.26162
lclavicle -7.26558e-014 9.48203e-014
lhumerus -12.1726 17.0056 61.3569
lradius 63.7591
lwrist 45.1167
lhand -16.9987 19.9608
lfingers 7.12502
lthumb 9.23655 49.7385
rfemur -59.5357 -14.1456 14.847
rtibia 96.227
rfoot -18.9838 -11.0513
rtoes -28.6247
lfemur -40.2478 19.6246 -7.62105
ltibia 37.906
lfoot 8.1732 -4.85558
ltoes -48.5024
187
root -23.7191 11.6011 -5.63488 173.816 -34.0802 -190.598
lowerback 41.7595 6.34956 -3.89166
upperback 15.8158 1.45458 -2.30911
thorax -2.31326 -1.26912 -0.912221
lowerneck -4.81596 3.66636 -10.7077
upperneck -16.9773 5.72568 12.5135
head -4.90782 2.38333 5.62549
rclavicle -6.02318e-014 3.83654e-014
rhumerus -15.2232 -20.7998 -72.6939
rradius 44.9898
rwrist -30.7501
rhand -31.3613 34.6825
rfingers 7.12502
rthumb -4.63201 4.75309
lclavicle -6.02318e-014 3.83654e-014
lhumerus -11.4329 16.9086 60.9615
lradius 63.2405
lwrist 45.8036
lhand -17.1059 19.9284
lfingers 7.12502
lthumb 9.13318 49.7107
rfemur -59.7121 -14.7043 14.3742
rtibia 97.5064
rfoot -19.6202 -10.8562
rtoes -28.0229
lfemur -41.2504 18.0456 -6.13799
ltibia 40.5083
lfoot 18.9382 -3.57845
ltoes -5.83689
188
root -24.0313 11.5381 -5.6563 173.479 -33.3249 -190.316
lowerback 42.1087 6.59767 -3.94847
upperback 15.8635 1.61986 -2.29564
thorax -2.35788 -1.22907 -0.934388
lowerneck -5.42255 3.7849 -10.5047
upperneck -16.8901 5.9063 12.6812
head -4.79885 2.45114 5.65004
rclavicle -1.01778e-013 6.5748e-014
rhumerus -13.837 -19.9347 -72.7161
rradius 46.6284
rwrist -31.0351
rhand -30.6987 34.7699
rfingers 7.12502
rthumb -3.9922 4.82759
lclavicle -1.01778e-013 6.5748e-014
lhumerus -11.0466 17.1196 60.8698
lradius 63.1222
lwrist 46.2651
lhand -16.9788 19.8259
lfingers 7.12502
lthumb 9.25577 49.6028
rfemur -59.8401 -15.1704 13.6334
rtibia 98.7274
rfoot -20.1174 -10.4399
rtoes -28.6112
lfemur -43.0141 18.7258 -6.04035
ltibia 44.6729
lfoot 22.363 -10.4885
ltoes -14.8247
189
root -24.3463 11.4435 -5.69065 173.289 -32.6322 -190.23
lowerback 42.4225 6.89895 -4.15496
upperback 15.9406 1.78007 -2.33282
thorax -2.3602 -1.20046 -0.934332
lowerneck -6.14885 3.85487 -10.7012
upperneck -16.7672 6.08482 13.3581
head -4.68021 2.51823 5.9157
rclavicle 1.65985e-014 -7.89175e-014
rhumerus -12.2499 -19.2509 -72.8326
rradius 48.0434
rwrist -31.2762
rhand -30.3884 34.7408
rfingers 7.12502
rthumb -3.69249 4.79307
lclavicle 1.65985e-014 -7.89175e-014
lhumerus -10.4786 17.6957 60.8756
lradius 62.8295
lwrist 46.3043
lhand -16.4034 19.7666
lfingers 7.12502
lthumb 9.81102 49.5181
rfemur -60.2634 -15.7496 12.6935
rtibia 100.109
rfoot -20.2752 -9.91906
rtoes -30.3987
lfemur -45.2976 20.9681 -7.24626
ltibia 49.782
lfoot 12.9034 -13.6985
ltoes -50.442
190
root -24.6346 11.3604 -5.72394 173.322 -32.0371 -190.292
lowerback 42.5491 7.26992 -4.61025
upperback 16.097 1.93677 -2.33514
thorax -2.22909 -1.19375 -0.771822
lowerneck -6.87649 3.97989 -10.9701
upperneck -16.8817 6.34065 14.0343
head -4.64873 2.61537 6.19895
rclavicle -1.85367e-014 -1.67725e-014
rhumerus -10.4397 -18.6124 -73.0079
rradius 49.1476
rwrist -31.3942
rhand -30.5624 35.0626
rfingers 7.12502
rthumb -3.86054 5.1178
lclavicle -1.85367e-014 -1.67725e-014
lhumerus -9.67586 17.8396 60.6794
lradius 62.3568
lwrist 46.4405
lhand -16.1418 19.678
lfingers 7.12502
lthumb 10.0634 49.4174
rfemur -60.8266 -16.3617 11.8355
rtibia 101.292
rfoot -20.4279 -9.56208
rtoes -31.06
lfemur -47.6983 22.1423 -8.29793
ltibia 54.9493
lfoot 9.79361 -12.0384
ltoes -55.263
191
root -24.9245 11.2957 -5.76385 173.193 -31.1726 -190.45
lowerback 42.8862 7.91033 -5.29908
upperback 16.2923 2.26351 -2.21187
thorax -2.12137 -1.14831 -0.429478
lowerneck -7.44717 4.09076 -11.2626
upperneck -17.1843 6.55399 14.4608
head -4.69417 2.69655 6.40743
rclavicle -2.11706e-014 -2.75814e-014
rhumerus -8.60963 -17.9632 -72.9777
rradius 49.9857
rwrist -31.5819
rhand -30.7133 35.6563
rfingers 7.12502
rthumb -4.0063 5.71422
lclavicle -2.11706e-014 -2.75814e-014
lhumerus -8.89456 17.0329 60.2549
lradius 61.8632
lwrist 46.9624
lhand -16.5167 19.517
lfingers 7.12502
lthumb 9.70171 49.2735
rfemur -61.0097 -16.7421 10.8647
rtibia 102.238
rfoot -21.1229 -9.04081
rtoes -30.0226
lfemur -48.8386 22.3702 -8.38423
ltibia 58.614
lfoot 11.4863 -8.31088
ltoes -47.6759
192
root -25.1987 11.2781 -5.78947 173.24 -30.2899 -190.811
lowerback 43.1919 8.52865 -6.03894
upperback 16.4237 2.5482 -2.17935
thorax -2.07504 -1.11331 -0.145164
lowerneck -7.97139 4.27952 -10.7931
upperneck -17.2755 6.73211 13.8958
head -4.63516 2.77877 6.14504
rclavicle -6.1996e-015 1.33807e-014
rhumerus -7.05051 -17.3594 -72.9252
rradius 50.8389
rwrist -32.0073
rhand -30.7903 35.8624
rfingers 7.12502
rthumb -4.08062 5.92175
lclavicle -6.1996e-015 1.33807e-014
lhumerus -7.98896 16.5256 59.89
lradius 61.1623
lwrist 47.1441
lhand -16.8195 19.3172
lfingers 7.12502
lthumb 9.40951 49.0871
rfemur -61.0143 -17.0639 9.74227
rtibia 102.744
rfoot -21.7265 -8.44612
rtoes -28.5308
lfemur -49.2432 22.6206 -8.66999
ltibia 60.9744
lfoot 10.8329 -6.85146
ltoes -39.7826
193
root -25.4586 11.3056 -5.79426 173.21 -29.5233 -191.38
lowerback 43.9023 9.00319 -6.52988
upperback 16.4927 2.66635 -2.30534
thorax -2.18396 -1.14263 -0.100934
lowerneck -8.17834 4.42024 -10.5576
upperneck -17.5073 6.86867 13.4785
head -4.67539 2.83777 5.97078
rclavicle -5.5579e-014 -1.02231e-013
rhumerus -5.78551 -16.938 -72.9679
rradius 51.8738
rwrist -32.4735
rhand -31.2155 35.612
rfingers 7.12502
rthumb -4.49121 5.67959
lclavicle -5.5579e-014 -1.02231e-013
lhumerus -6.91367 16.5676 59.7662
lradius 60.2601
lwrist 46.8311
lhand -17.0273 19.0167
lfingers 7.12502
lthumb 9.20903 48.7956
rfemur -60.5132 -17.4044 8.36365
rtibia 102.817
rfoot -22.0873 -7.68378
rtoes -26.1904
lfemur -49.0152 22.6116 -9.23385
ltibia 62.473
lfoot 8.99501 -7.52547
ltoes -43.272
